<svg width="16" height="17" viewBox="0 0 16 17" fill="none" xmlns="http://www.w3.org/2000/svg">
<path d="M8 1C4.95119 1 2.47964 2.44539 2.47964 5.28571C2.47964 6.94785 1.83094 8.81143 1.16251 10.2905C0.607501 11.5186 1.53915 13 2.96946 13H13.0305C14.4608 13 15.3925 11.5186 14.8375 10.2905C14.1691 8.81143 13.5204 6.94785 13.5204 5.28571C13.5204 2.44539 11.0488 1 8 1Z" fill="black"/>
<path d="M5.23983 13V13.8571C5.23983 15.2773 6.47561 16 8.00001 16C9.52442 16 10.7602 15.2773 10.7602 13.8571V13M2.47964 5.28571C2.47964 2.44539 4.95119 1 8 1C11.0488 1 13.5204 2.44539 13.5204 5.28571C13.5204 6.94785 14.1691 8.81143 14.8375 10.2905C15.3925 11.5186 14.4608 13 13.0305 13H2.96946C1.53915 13 0.607501 11.5186 1.16251 10.2905C1.83094 8.81143 2.47964 6.94785 2.47964 5.28571Z" stroke="black" stroke-width="1.5" stroke-linecap="round" stroke-linejoin="round"/>
</svg>
