<?xml version="1.0" encoding="UTF-8"?>
<svg version="1.1" xmlns="http://www.w3.org/2000/svg" width="177" height="165">
<path d="M0 0 C1.05574219 0.37382813 2.11148438 0.74765625 3.19921875 1.1328125 C15.09014805 5.7308415 24.88121461 12.14395927 34 21 C34.69867188 21.62519531 35.39734375 22.25039063 36.1171875 22.89453125 C49.4970288 35.25917058 57.52517375 53.81716181 58.3203125 71.859375 C58.89874459 93.7947869 54.21540403 114.40404773 39 131 C38.12601563 131.96550781 37.25203125 132.93101562 36.3515625 133.92578125 C22.34355939 148.90470572 1.78122174 159.94237544 -18.97583008 161.17700195 C-48.00488659 161.71708743 -48.00488659 161.71708743 -61 157 C-62.05574219 156.62617188 -63.11148438 156.25234375 -64.19921875 155.8671875 C-76.09014805 151.2691585 -85.88121461 144.85604073 -95 136 C-95.69867188 135.37480469 -96.39734375 134.74960938 -97.1171875 134.10546875 C-110.4970288 121.74082942 -118.52517375 103.18283819 -119.3203125 85.140625 C-119.89874459 63.2052131 -115.21540403 42.59595227 -100 26 C-99.12601563 25.03449219 -98.25203125 24.06898437 -97.3515625 23.07421875 C-73.51914154 -2.41007267 -32.91643469 -11.94831437 0 0 Z " fill="#FDFCFB" transform="translate(119,4)"/>
<path d="M0 0 C1.11375 0.680625 1.11375 0.680625 2.25 1.375 C4.46930578 2.68640796 6.67967822 3.88280803 9 5 C10.98 3.35 12.96 1.7 15 0 C15 3 15 3 13.625 4.625 C11.23705126 8.11507893 10.74719919 11.88600917 10 16 C16.16127863 12.23741579 16.16127863 12.23741579 22 8 C21.8615024 10.97769846 21.68881566 13.21826492 19.66796875 15.51171875 C15.55999284 19 15.55999284 19 13 19 C12.34 22.3 11.68 25.6 11 29 C13.97 28.01 16.94 27.02 20 26 C19.2575 26.70125 18.515 27.4025 17.75 28.125 C15.02182777 30.97718006 13.08697046 33.6763063 11 37 C11.53109375 36.65066406 12.0621875 36.30132812 12.609375 35.94140625 C13.66898438 35.25884766 13.66898438 35.25884766 14.75 34.5625 C15.79414063 33.88380859 15.79414063 33.88380859 16.859375 33.19140625 C20.72645328 31.03910903 24.11582242 30.86295556 28.5 30.875 C29.90765625 30.87113281 29.90765625 30.87113281 31.34375 30.8671875 C33.7214263 30.98607132 35.72683096 31.32448278 38 32 C38 32.66 38 33.32 38 34 C35.69 33.67 33.38 33.34 31 33 C31 33.66 31 34.32 31 35 C34.96 35.99 38.92 36.98 43 38 C42.505 38.99 42.505 38.99 42 40 C36.30513538 40.28956939 33.88140999 40.00394461 29 37 C24.02950357 36.46744681 20.94118438 36.8470525 17 40 C15.17378056 42.99369544 14.63190284 45.59095768 14.3125 49.0625 C14.18294922 50.34833984 14.18294922 50.34833984 14.05078125 51.66015625 C13.86521466 54.1568733 13.86521466 54.1568733 15 57 C15.07051114 59.73865287 15.09357765 62.45027588 15.0625 65.1875 C15.05798828 65.93708984 15.05347656 66.68667969 15.04882812 67.45898438 C15.03706354 69.30602383 15.01912865 71.15302213 15 73 C18.00778521 74.00259507 20.53820647 74.30314642 23.6875 74.5625 C25.17830078 74.68818359 25.17830078 74.68818359 26.69921875 74.81640625 C27.45847656 74.87699219 28.21773438 74.93757813 29 75 C29 75.33 29 75.66 29 76 C24.05 76.495 24.05 76.495 19 77 C24.94 77.33 30.88 77.66 37 78 C37 78.33 37 78.66 37 79 C33.37 79.99 29.74 80.98 26 82 C27.753125 82.103125 29.50625 82.20625 31.3125 82.3125 C36.54326923 82.62019231 36.54326923 82.62019231 38.85546875 84.54296875 C39.23316406 85.02378906 39.61085938 85.50460938 40 86 C40.53625 85.51144531 41.0725 85.02289063 41.625 84.51953125 C44.61438448 82.6069152 46.47684755 82.63024877 50 82.6875 C51.546875 82.69330078 51.546875 82.69330078 53.125 82.69921875 C55.92633186 82.99229287 57.61170203 83.55898368 60 85 C59.04738281 84.95359375 58.09476562 84.9071875 57.11328125 84.859375 C55.85902344 84.82328125 54.60476562 84.7871875 53.3125 84.75 C51.45044922 84.68039063 51.45044922 84.68039063 49.55078125 84.609375 C45.41565531 85.06428434 43.8656606 86.04395678 41 89 C40.505 90.485 40.505 90.485 40 92 C40.60473145 91.84853516 41.20946289 91.69707031 41.83251953 91.54101562 C44.59493876 90.85345196 47.35988765 90.17664786 50.125 89.5 C51.55199219 89.14228516 51.55199219 89.14228516 53.0078125 88.77734375 C57.76064801 87.62214067 62.06733309 86.66783388 67 87 C67 86.34 67 85.68 67 85 C65.02 84.505 65.02 84.505 63 84 C63 83.67 63 83.34 63 83 C64.65 83 66.3 83 68 83 C68 83.99 68 84.98 68 86 C69.98 86.495 69.98 86.495 72 87 C71.505 88.485 71.505 88.485 71 90 C68.56665039 90.85961914 68.56665039 90.85961914 65.34765625 91.53515625 C63.59291992 91.91317383 63.59291992 91.91317383 61.80273438 92.29882812 C59.95131836 92.6768457 59.95131836 92.6768457 58.0625 93.0625 C56.86302734 93.31837891 55.66355469 93.57425781 54.42773438 93.83789062 C49.38397338 94.90827962 44.33312586 95.93760244 39.2734375 96.9296875 C32.1675263 98.34127011 25.10095341 99.9403694 18.02954102 101.51391602 C15.54421102 102.06656683 13.05826102 102.61636671 10.57226562 103.16601562 C8.98694109 103.51805776 7.40165327 103.87026526 5.81640625 104.22265625 C5.0758046 104.38621109 4.33520294 104.54976593 3.57215881 104.71827698 C0.65900051 105.36857492 -2.16589555 106.05529852 -5 107 C-10.22859068 107.33267144 -14.06052759 106.54722289 -18.9375 104.6875 C-20.15953125 104.22859375 -21.3815625 103.7696875 -22.640625 103.296875 C-23.74921875 102.86890625 -24.8578125 102.4409375 -26 102 C-27.39536874 101.47792326 -28.79110332 100.95682108 -30.1875 100.4375 C-30.79207031 100.20804687 -31.39664063 99.97859375 -32.01953125 99.7421875 C-34.46336514 98.82635232 -36.91934257 97.94612569 -39.375 97.0625 C-44.63185211 95.15826966 -49.82319479 93.11114833 -55 91 C-55 89.68 -55 88.36 -55 87 C-46.66217687 88.58815679 -39.02604393 91.3422465 -31.23046875 94.66015625 C-27.70056616 96.12419082 -24.14784527 97.49000587 -20.5625 98.8125 C-19.42941406 99.23144531 -18.29632813 99.65039062 -17.12890625 100.08203125 C-14.21389682 100.93724625 -12.00988468 101.19690834 -9 101 C-8.67 100.34 -8.34 99.68 -8 99 C-6.35 99 -4.7 99 -3 99 C-4.98 99.495 -4.98 99.495 -7 100 C-7 100.66 -7 101.32 -7 102 C-3.54150022 101.2507663 -0.08324212 100.50042197 3.375 99.75 C4.41180908 99.52546143 5.44861816 99.30092285 6.5168457 99.06958008 C11.48079936 97.9922479 16.44199034 96.9060883 21.39453125 95.77734375 C22.20809082 95.59268555 23.02165039 95.40802734 23.85986328 95.21777344 C25.37859559 94.87178156 26.89654527 94.52233087 28.41357422 94.16894531 C31.73596007 93.4138933 34.56754594 93 38 93 C36.6910428 89.87802522 36.6910428 89.87802522 34 88 C26.58447849 87.20127603 21.654717 89.60443415 15.125 92.9375 C14.17625 93.40607422 13.2275 93.87464844 12.25 94.35742188 C9.82581345 95.55742875 7.41092562 96.77363824 5 98 C4.01 98.495 4.01 98.495 3 99 C2.01 98.01 2.01 98.01 1 97 C2.22102252 90.77278516 3.99273923 88.80987232 9 85 C9 84.34 9 83.68 9 83 C8.01 82.01 8.01 82.01 7 81 C7.29774574 79.04811124 7.5956206 77.09624196 7.89453125 75.14453125 C8.06722902 71.63301001 6.54701782 69.09403564 5 66 C2.58679284 60.70950738 1.84599797 56.71302977 1.625 50.875 C1.38037738 45.07070477 1.38037738 45.07070477 -1.4375 40.1875 C-5.43886359 36.77170181 -7.74292739 36.6435883 -13 37 C-13.78375 37.495 -14.5675 37.99 -15.375 38.5 C-19.18344241 40.6762528 -22.70993673 40.25235666 -27 40 C-27.33 39.34 -27.66 38.68 -28 38 C-26.93458984 37.80083984 -26.93458984 37.80083984 -25.84765625 37.59765625 C-24.92855469 37.42105469 -24.00945313 37.24445313 -23.0625 37.0625 C-22.14597656 36.88847656 -21.22945312 36.71445313 -20.28515625 36.53515625 C-18.04710156 36.22285012 -18.04710156 36.22285012 -17 35 C-18.65 34.67 -20.3 34.34 -22 34 C-22 33.34 -22 32.68 -22 32 C-14.35399223 29.82544733 -7.09596821 30.50708438 0 34 C1.69403834 34.95289657 3.37501495 35.93360356 5 37 C2.22364768 32.98971331 -0.40521193 29.32850747 -4 26 C-1.03 26.99 1.94 27.98 5 29 C4.42940846 23.15509222 4.42940846 23.15509222 1.37890625 18.4296875 C0.14315114 17.61270179 -1.10821329 16.81877069 -2.375 16.05078125 C-4.49170754 14.68204488 -5.3516312 13.43138299 -6 11 C-5.67 10.01 -5.34 9.02 -5 8 C-4.31164062 8.61488281 -4.31164062 8.61488281 -3.609375 9.2421875 C-2.68898438 10.05042969 -2.68898438 10.05042969 -1.75 10.875 C-1.14671875 11.40867187 -0.5434375 11.94234375 0.078125 12.4921875 C1.97418746 13.9797487 3.81290005 15.00322436 6 16 C5.04587858 10.23760878 4.0301316 6.43314475 0 2 C0 1.34 0 0.68 0 0 Z " fill="#765137" transform="translate(82,39)"/>
<path d="M0 0 C1.95658871 1.64185594 2.90440906 2.60377191 3.51171875 5.12109375 C3.56972656 5.88550781 3.62773438 6.64992188 3.6875 7.4375 C3.78611328 8.58025391 3.78611328 8.58025391 3.88671875 9.74609375 C4.05844755 13.1629048 4 16.57935572 4 20 C2.4817416 21.22752807 0.96030969 22.45218374 -0.59765625 23.62890625 C-2.79457856 25.77687207 -2.86214282 28.03607067 -3 31 C0.3377639 31 1.67469618 30.32245912 4.60546875 28.8125 C5.50716797 28.36132812 6.40886719 27.91015625 7.33789062 27.4453125 C9.22211177 26.48964174 11.10242038 25.52621338 12.97851562 24.5546875 C18.63526887 21.74437716 22.66545912 20.21795792 29 21 C31.5 22.875 31.5 22.875 33 25 C33 25.66 33 26.32 33 27 C28.76859975 27.96192653 24.53681468 28.92213742 20.3046875 29.88085938 C18.86936299 30.20625104 17.4341389 30.53208601 15.99902344 30.85839844 C-6.61771472 36 -6.61771472 36 -12 36 C-12.33 35.67 -12.66 35.34 -13 35 C-15.40761596 34.02677215 -17.81704487 33.09338755 -20.25 32.1875 C-21.33547119 31.78156616 -21.33547119 31.78156616 -22.44287109 31.36743164 C-27.81988967 29.38104348 -33.24345655 27.64568795 -38.73828125 26.01171875 C-44.56120992 24.20556483 -50.27528855 22.09419729 -56 20 C-56 19.34 -56 18.68 -56 18 C-54.72125 18 -53.4425 18 -52.125 18 C-45.66233983 17.41752848 -40.24895305 14.64297193 -34.51025391 11.79492188 C-28.22454428 8.76507012 -23.20293226 8.18792223 -16.375 10.0625 C-12.90940094 10.89353651 -10.44662268 11.21645506 -7 10 C-6.01 9.34 -5.02 8.68 -4 8 C-3.01 8 -2.02 8 -1 8 C-0.67 5.36 -0.34 2.72 0 0 Z " fill="#7F5D44" transform="translate(87,105)"/>
<path d="M0 0 C0 0.66 0 1.32 0 2 C-0.54269531 2.17015625 -1.08539063 2.3403125 -1.64453125 2.515625 C-7.30533471 4.42025405 -7.30533471 4.42025405 -11 9 C-10.26910156 8.54947266 -10.26910156 8.54947266 -9.5234375 8.08984375 C-2.30146758 4.2162417 4.04979179 4.95957446 12 6 C10.1875 8 10.1875 8 8 10 C7.01 10 6.02 10 5 10 C5 10.66 5 11.32 5 12 C10.80054339 10.47549821 14.67635324 9.34673609 18 4 C20.475 4.495 20.475 4.495 23 5 C22 8 22 8 19 10.3125 C16.3576298 12.38593882 16.03966263 12.84984861 15.125 16.3125 C15.08375 17.199375 15.0425 18.08625 15 19 C7.17772382 21.60742539 0.18208664 19.46273918 -7.3125 16.75 C-8.22733154 16.431521 -9.14216309 16.11304199 -10.0847168 15.78491211 C-11.89682903 15.15393595 -13.70720243 14.5179393 -15.515625 13.87646484 C-18.7679295 12.72908147 -22.03725042 11.64255254 -25.3125 10.5625 C-26.875 10.04166667 -28.4375 9.52083333 -30 9 C-28.36988233 5.73976465 -25.11490416 5.33352864 -21.8203125 4.08984375 C-20.0012656 3.38691565 -18.20104236 2.63209094 -16.4296875 1.81640625 C-10.386702 -0.92093358 -6.52795216 -1.26347461 0 0 Z " fill="#F7F5F3" transform="translate(69,117)"/>
<path d="M0 0 C8.30323215 1.41318168 16.48904695 3.20082629 24.6875 5.125 C25.87794922 5.40214844 27.06839844 5.67929688 28.29492188 5.96484375 C31.19717398 6.64087034 34.09884214 7.31929571 37 8 C36.67 8.66 36.34 9.32 36 10 C36.99 10.33 37.98 10.66 39 11 C39 11.66 39 12.32 39 13 C36.00085281 13.65001678 33.00078199 14.29511037 30 14.9375 C29.16082031 15.11990234 28.32164062 15.30230469 27.45703125 15.49023438 C22.31357169 16.58670831 17.22798341 17.42516386 12 18 C12.34879632 14.74456771 13.02133261 13.98126893 15.5625 11.75 C16.366875 11.1725 17.17125 10.595 18 10 C15.10491489 10 13.40303527 11.48229352 11 13 C10.34 12.01 9.68 11.02 9 10 C6.40879443 9.49097591 6.40879443 9.49097591 3.5 9.4375 C-1.79229711 9.20770289 -1.79229711 9.20770289 -4 7 C-2.2984375 6.7834375 -2.2984375 6.7834375 -0.5625 6.5625 C2.80777201 6.38828522 2.80777201 6.38828522 4 5 C3.07316406 4.95101562 2.14632812 4.90203125 1.19140625 4.8515625 C-0.00613281 4.77679688 -1.20367187 4.70203125 -2.4375 4.625 C-3.63246094 4.55539063 -4.82742187 4.48578125 -6.05859375 4.4140625 C-7.02925781 4.27742188 -7.99992187 4.14078125 -9 4 C-9.33 3.34 -9.66 2.68 -10 2 C-6.7 1.67 -3.4 1.34 0 1 C0 0.67 0 0.34 0 0 Z " fill="#A18773" transform="translate(110,113)"/>
<path d="M0 0 C0.66 0 1.32 0 2 0 C3.33333333 1.33333333 4.66666667 2.66666667 6 4 C6.66 4 7.32 4 8 4 C8.33 4.99 8.66 5.98 9 7 C10.423125 5.7625 10.423125 5.7625 11.875 4.5 C14.75 2 14.75 2 17 2 C17.20608897 5.02263816 17.29742569 7.3258351 16.0625 10.125 C13.37828012 12.56519989 10.51716974 13.66749908 7.15625 14.97265625 C4.92796129 16.03432279 3.62331226 17.16336786 2 19 C-1.41889073 17.53476111 -3.8141602 16.04456257 -6 13 C-6.33485805 9.97058107 -6.23342706 7.03455174 -6 4 C-4 4 -4 4 -2.375 5.5 C-1.92125 5.995 -1.4675 6.49 -1 7 C-1.020625 6.030625 -1.04125 5.06125 -1.0625 4.0625 C-1 1 -1 1 0 0 Z " fill="#F2E6E2" transform="translate(89,26)"/>
<path d="M0 0 C2.5 1.875 2.5 1.875 4 4 C4 4.66 4 5.32 4 6 C-0.23140025 6.96192653 -4.46318532 7.92213742 -8.6953125 8.88085938 C-10.13063701 9.20625104 -11.5658611 9.53208601 -13.00097656 9.85839844 C-35.61771472 15 -35.61771472 15 -41 15 C-41 14.34 -41 13.68 -41 13 C-40.40316406 12.96003906 -39.80632812 12.92007813 -39.19140625 12.87890625 C-30.69403246 11.85619113 -24.16199096 8.21063468 -16.8203125 4.09375 C-10.95133343 0.8226562 -6.73809107 -0.64172296 0 0 Z " fill="#F1EEEB" transform="translate(116,126)"/>
<path d="M0 0 C0.76054688 0.15082031 1.52109375 0.30164063 2.3046875 0.45703125 C2.90539062 0.69808594 3.50609375 0.93914062 4.125 1.1875 C4.62 2.6725 4.62 2.6725 5.125 4.1875 C2.815 4.1875 0.505 4.1875 -1.875 4.1875 C-1.875 3.5275 -1.875 2.8675 -1.875 2.1875 C-9.29501641 1.70878926 -14.15895402 3.17088451 -20.875 6.1875 C-22.74680447 6.94543998 -24.62172938 7.69572881 -26.5 8.4375 C-27.33789062 8.77265625 -28.17578125 9.1078125 -29.0390625 9.453125 C-29.94785156 9.81664063 -29.94785156 9.81664063 -30.875 10.1875 C-10.96922697 18.90463378 -10.96922697 18.90463378 10.19140625 21.203125 C10.82949219 21.19796875 11.46757813 21.1928125 12.125 21.1875 C12.785 21.8475 13.445 22.5075 14.125 23.1875 C10.10695309 24.02848656 7.10696457 24.24154945 3.125 23.1875 C2.795 23.8475 2.465 24.5075 2.125 25.1875 C1.51914063 24.93355469 0.91328125 24.67960937 0.2890625 24.41796875 C-4.92154412 22.27761188 -10.11438669 20.46030912 -15.5234375 18.89453125 C-18.23570936 18.07904752 -20.87425103 17.1025621 -23.515625 16.08203125 C-26.78569301 14.8422207 -30.0804164 13.67263443 -33.375 12.5 C-34.6021875 12.06300781 -35.829375 11.62601563 -37.09375 11.17578125 C-38.0115625 10.84964844 -38.929375 10.52351563 -39.875 10.1875 C-39.875 9.5275 -39.875 8.8675 -39.875 8.1875 C-38.59625 8.1875 -37.3175 8.1875 -36 8.1875 C-29.53733983 7.60502848 -24.12395305 4.83047193 -18.38525391 1.98242188 C-12.05356655 -1.06959216 -6.92825577 -1.47435201 0 0 Z " fill="#8B6B54" transform="translate(70.875,114.8125)"/>
<path d="M0 0 C3.50111631 1.10064763 7.000678 2.20616219 10.5 3.3125 C11.48226562 3.62123047 12.46453125 3.92996094 13.4765625 4.24804688 C17.79223393 5.61467616 22.08478577 6.99511192 26.31640625 8.60546875 C30.67455196 10.25537121 35.09733164 11.5974463 39.55859375 12.9375 C40.36425781 13.288125 41.16992188 13.63875 42 14 C42.495 15.485 42.495 15.485 43 17 C36.17160613 16.46854482 30.38050365 14.55028681 24 12.125 C23.05382812 11.77308594 22.10765625 11.42117187 21.1328125 11.05859375 C19.28089317 10.36861273 17.43057017 9.67432884 15.58203125 8.9753418 C13.93588377 8.35352266 12.28763957 7.7372067 10.63671875 7.12817383 C6.83275638 5.72472382 3.31100711 4.37978636 0 2 C0 1.34 0 0.68 0 0 Z " fill="#E6DFDA" transform="translate(30,124)"/>
<path d="M0 0 C0.66 0 1.32 0 2 0 C3.33333333 1.33333333 4.66666667 2.66666667 6 4 C6.66 4 7.32 4 8 4 C8.3125 6.8125 8.3125 6.8125 8 10 C5.72021409 12.2085426 4.115532 12.98741881 0.921875 13.0234375 C-1.25 12.8125 -1.25 12.8125 -5 12 C-6.35439668 9.29120665 -6.06501451 6.99066732 -6 4 C-4 4 -4 4 -2.375 5.5 C-1.92125 5.995 -1.4675 6.49 -1 7 C-1.020625 6.030625 -1.04125 5.06125 -1.0625 4.0625 C-1 1 -1 1 0 0 Z " fill="#FAF4F2" transform="translate(89,26)"/>
<path d="M0 0 C0 0.33 0 0.66 0 1 C-3.5817048 1.84043997 -7.16560643 2.67110899 -10.75 3.5 C-12.27367187 3.85771484 -12.27367187 3.85771484 -13.828125 4.22265625 C-15.29765625 4.56103516 -15.29765625 4.56103516 -16.796875 4.90625 C-17.69760742 5.11572266 -18.59833984 5.32519531 -19.52636719 5.54101562 C-22 6 -22 6 -26 6 C-25.6858889 3.06829636 -24.9610478 1.95750669 -22.9375 -0.25 C-16.13645173 -4.30168833 -7.3671701 -1.37520509 0 0 Z " fill="#F5F2F0" transform="translate(148,125)"/>
<path d="M0 0 C2 1 4 2 6 3 C6 3.66 6 4.32 6 5 C6.804375 5.144375 7.60875 5.28875 8.4375 5.4375 C11 6 11 6 12 7 C12.04063832 8.66617115 12.042721 10.33388095 12 12 C11.34 12 10.68 12 10 12 C10 12.99 10 13.98 10 15 C8.16796875 14.765625 8.16796875 14.765625 6 14 C4.55078125 12.109375 4.55078125 12.109375 3.3125 9.75 C2.89613281 8.98171875 2.47976562 8.2134375 2.05078125 7.421875 C0.97613142 4.94498692 0.4289757 2.65870652 0 0 Z " fill="#E9DEDD" transform="translate(65,33)"/>
<path d="M0 0 C0 0.33 0 0.66 0 1 C-1.8253125 1.4021875 -1.8253125 1.4021875 -3.6875 1.8125 C-7.22121044 2.68494361 -9.9768282 3.92156939 -13 6 C-13.66 5.01 -14.32 4.02 -15 3 C-17.59120557 2.49097591 -17.59120557 2.49097591 -20.5 2.4375 C-25.79229711 2.20770289 -25.79229711 2.20770289 -28 0 C-18.29915458 -1.47844069 -9.63252185 -2.70459577 0 0 Z " fill="#F2EFEC" transform="translate(134,120)"/>
<path d="M0 0 C-0.020625 1.093125 -0.04125 2.18625 -0.0625 3.3125 C-0.18544452 6.94384191 -0.18544452 6.94384191 1 10 C0.91255992 12.5808926 0.77131505 15.11691478 0.5625 17.6875 C0.51029297 18.38939453 0.45808594 19.09128906 0.40429688 19.81445312 C0.27492135 21.54338054 0.13817469 23.27175355 0 25 C-1.98885364 21.64482009 -2.36625292 18.80433133 -2.625 14.9375 C-2.69976562 13.89464844 -2.77453125 12.85179688 -2.8515625 11.77734375 C-2.95437475 9.85367245 -3 7.92641678 -3 6 C-5.83022097 9.99560608 -4.76210446 13.42737323 -4 18 C-5.5078125 16.7734375 -5.5078125 16.7734375 -7 15 C-7.44191533 9.86993947 -6.17438248 5.06320957 -3 1 C-1 0 -1 0 0 0 Z " fill="#A38977" transform="translate(96,86)"/>
<path d="M0 0 C1.9453125 -0.29296875 1.9453125 -0.29296875 4.125 -0.1875 C5.40375 -0.125625 6.6825 -0.06375 8 0 C8 2.64 8 5.28 8 8 C4.66666667 8.66666667 1.33333333 9.33333333 -2 10 C-2.25 3.375 -2.25 3.375 0 0 Z " fill="#EFE8E3" transform="translate(95,58)"/>
<path d="M0 0 C0.66 0.33 1.32 0.66 2 1 C2 2.98 2 4.96 2 7 C0.68 7.33 -0.64 7.66 -2 8 C-2.33 7.34 -2.66 6.68 -3 6 C-3.226875 6.804375 -3.45375 7.60875 -3.6875 8.4375 C-4.3371875 9.7059375 -4.3371875 9.7059375 -5 11 C-7.625 11.8125 -7.625 11.8125 -10 12 C-9.25 7.25 -9.25 7.25 -7 5 C-7.99 4.34 -8.98 3.68 -10 3 C-8.906875 2.87625 -7.81375 2.7525 -6.6875 2.625 C-2.92618198 2.24535199 -2.92618198 2.24535199 0 0 Z " fill="#E9CFC8" transform="translate(67,76)"/>
<path d="M0 0 C0.66 0 1.32 0 2 0 C1.51675181 5.15464734 -1.18610761 8.81550319 -4 13 C-4.33 11.68 -4.66 10.36 -5 9 C-6.65 9.66 -8.3 10.32 -10 11 C-9.67 9.35 -9.34 7.7 -9 6 C-8.1646875 5.9071875 -8.1646875 5.9071875 -7.3125 5.8125 C-4.0716122 4.67380969 -2.3687597 2.43109548 0 0 Z " fill="#DDC7C4" transform="translate(113,33)"/>
<path d="M0 0 C5.27683031 1.07325362 10.2700018 2.40503645 15.375 4.125 C20.73255254 5.83740222 25.25958068 6.32219515 30.85546875 5.9453125 C33 6 33 6 35 8 C30.98195309 8.84098656 27.98196457 9.05404945 24 8 C23.67 8.66 23.34 9.32 23 10 C22.39414063 9.74605469 21.78828125 9.49210938 21.1640625 9.23046875 C15.8809876 7.06034414 10.66063925 5.23814273 5.12890625 3.80859375 C2.78658476 2.91894137 1.62099845 1.88160913 0 0 Z " fill="#8D6D56" transform="translate(50,130)"/>
<path d="M0 0 C0.33 0.99 0.66 1.98 1 3 C-1.31 3 -3.62 3 -6 3 C-6 2.34 -6 1.68 -6 1 C-7.41655793 0.9727585 -8.83327045 0.95349533 -10.25 0.9375 C-11.03890625 0.92589844 -11.8278125 0.91429688 -12.640625 0.90234375 C-14.99849153 0.90611755 -14.99849153 0.90611755 -17.171875 1.62890625 C-17.77515625 1.75136719 -18.3784375 1.87382813 -19 2 C-19.66 1.34 -20.32 0.68 -21 0 C-14.49006861 -3.15633037 -6.67851333 -2.68000427 0 0 Z " fill="#9C816D" transform="translate(75,116)"/>
<path d="M0 0 C2.31 0.66 4.62 1.32 7 2 C3.82117052 4.54920625 0.50731355 6.41153172 -3.125 8.25 C-4.70667969 9.06210938 -4.70667969 9.06210938 -6.3203125 9.890625 C-7.20460938 10.25671875 -8.08890625 10.6228125 -9 11 C-9.66 10.67 -10.32 10.34 -11 10 C-7.4912812 6.90407165 -4.50802601 5.25805377 0 4 C0 2.68 0 1.36 0 0 Z " fill="#E5DED9" transform="translate(99,123)"/>
<path d="M0 0 C5.27749285 0.53851968 9.25645564 1.77343836 14 4 C14 4.66 14 5.32 14 6 C8.58609132 5.53328373 4.79482068 4.75702189 0 2 C0 1.34 0 0.68 0 0 Z " fill="#ECE7E3" transform="translate(59,135)"/>
<path d="M0 0 C2.31 0.33 4.62 0.66 7 1 C7.1875 3.375 7.1875 3.375 7 6 C3.79619983 8.13586678 2.98060033 8.23132175 -0.6875 8.125 C-1.49574219 8.10695313 -2.30398437 8.08890625 -3.13671875 8.0703125 C-4.05904297 8.03550781 -4.05904297 8.03550781 -5 8 C-5.33 7.34 -5.66 6.68 -6 6 C-5.28972656 5.86722656 -4.57945313 5.73445313 -3.84765625 5.59765625 C-2.92855469 5.42105469 -2.00945313 5.24445313 -1.0625 5.0625 C0.31228516 4.80146484 0.31228516 4.80146484 1.71484375 4.53515625 C3.95289844 4.22285012 3.95289844 4.22285012 5 3 C3.35 2.67 1.7 2.34 0 2 C0 1.34 0 0.68 0 0 Z " fill="#957864" transform="translate(60,71)"/>
<path d="M0 0 C1.32 0 2.64 0 4 0 C4 0.99 4 1.98 4 3 C4.99 3.66 5.98 4.32 7 5 C7 5.66 7 6.32 7 7 C5.68 7 4.36 7 3 7 C2.67 7.66 2.34 8.32 2 9 C2 8.01 2 7.02 2 6 C0.68 5.67 -0.64 5.34 -2 5 C-1.34 4.67 -0.68 4.34 0 4 C0 2.68 0 1.36 0 0 Z " fill="#E2BEB5" transform="translate(118,65)"/>
<path d="M0 0 C0.36666667 5.5 0.36666667 5.5 -1.375 7.875 C-3 9 -3 9 -5 9 C-5.75 6.75 -5.75 6.75 -6 4 C-2.86486486 0 -2.86486486 0 0 0 Z " fill="#CC8574" transform="translate(106,28)"/>
<path d="M0 0 C2.86724686 0.57344937 3.8614515 0.8614515 6 3 C6.125 5.625 6.125 5.625 6 8 C1.125 6.125 1.125 6.125 0 5 C-0.04063832 3.33382885 -0.042721 1.66611905 0 0 Z " fill="#D19283" transform="translate(117,81)"/>
<path d="M0 0 C0.66 0 1.32 0 2 0 C2 0.66 2 1.32 2 2 C3.32 2.66 4.64 3.32 6 4 C5.67 5.32 5.34 6.64 5 8 C4.01 8 3.02 8 2 8 C0 6 0 6 -0.125 2.875 C-0.08375 1.92625 -0.0425 0.9775 0 0 Z " fill="#CB8372" transform="translate(74,28)"/>
<path d="M0 0 C4.95 1.65 9.9 3.3 15 5 C12 7 12 7 9.58984375 6.6796875 C8.71457031 6.41414062 7.83929688 6.14859375 6.9375 5.875 C6.05964844 5.62492188 5.18179688 5.37484375 4.27734375 5.1171875 C2 4 2 4 0 0 Z " fill="#DAD0C8" transform="translate(30,124)"/>
<path d="M0 0 C-0.33 1.98 -0.66 3.96 -1 6 C-2.32 6.33 -3.64 6.66 -5 7 C-5.66 5.68 -6.32 4.36 -7 3 C-2.25 0 -2.25 0 0 0 Z " fill="#CC8776" transform="translate(125,42)"/>
<path d="M0 0 C1.98 0 3.96 0 6 0 C5.67 1.32 5.34 2.64 5 4 C0.25 5.125 0.25 5.125 -2 4 C-1.34 2.68 -0.68 1.36 0 0 Z " fill="#CF8C7B" transform="translate(115,51)"/>
<path d="M0 0 C2.31 0 4.62 0 7 0 C7.66 1.32 8.32 2.64 9 4 C6.69 4 4.38 4 2 4 C1.34 2.68 0.68 1.36 0 0 Z " fill="#CE8979" transform="translate(58,51)"/>
<path d="M0 0 C1.98 0.66 3.96 1.32 6 2 C5.67 3.65 5.34 5.3 5 7 C3.68 6.67 2.36 6.34 1 6 C0.67 4.02 0.34 2.04 0 0 Z " fill="#CA8270" transform="translate(55,42)"/>
<path d="M0 0 C1.56041016 -0.00773437 1.56041016 -0.00773437 3.15234375 -0.015625 C5.99348495 0.24370064 7.64957634 0.78480298 10.0625 2.25 C8.63357422 2.19779297 8.63357422 2.19779297 7.17578125 2.14453125 C5.92152344 2.11746094 4.66726562 2.09039062 3.375 2.0625 C2.13363281 2.02769531 0.89226562 1.99289063 -0.38671875 1.95703125 C-4.12314321 2.2653171 -5.94379483 3.06911727 -8.9375 5.25 C-8.9375 4.26 -8.9375 3.27 -8.9375 2.25 C-5.48666005 -0.05055997 -4.06574272 -0.02010256 0 0 Z " fill="#815F46" transform="translate(131.9375,121.75)"/>
<path d="M0 0 C0.8353125 0.556875 0.8353125 0.556875 1.6875 1.125 C0.6975 2.61 0.6975 2.61 -0.3125 4.125 C-2.8125 4.5 -2.8125 4.5 -5.3125 4.125 C-5.9725 3.135 -6.6325 2.145 -7.3125 1.125 C-2.88173077 -1.09038462 -2.88173077 -1.09038462 0 0 Z " fill="#CB8573" transform="translate(52.3125,72.875)"/>
<path d="M0 0 C2.97 0.495 2.97 0.495 6 1 C6 1.66 6 2.32 6 3 C5.01 3.495 5.01 3.495 4 4 C3.67 4.99 3.34 5.98 3 7 C1.68 7 0.36 7 -1 7 C-1 6.01 -1 5.02 -1 4 C-0.34 3.67 0.32 3.34 1 3 C0.67 2.01 0.34 1.02 0 0 Z " fill="#D8A194" transform="translate(128,63)"/>
<path d="M0 0 C3.1875 0.875 3.1875 0.875 6 2 C4.8125 3.5 4.8125 3.5 3 5 C0.3125 5.1875 0.3125 5.1875 -2 5 C-2.33 4.01 -2.66 3.02 -3 2 C-2.01 1.34 -1.02 0.68 0 0 Z " fill="#CC8573" transform="translate(129,72)"/>
<path d="M0 0 C0.99 0.33 1.98 0.66 3 1 C2.67 2.65 2.34 4.3 2 6 C0.68 6 -0.64 6 -2 6 C-2 4.35 -2 2.7 -2 1 C-1.34 0.67 -0.68 0.34 0 0 Z " fill="#E4C2B9" transform="translate(113,77)"/>
<path d="M0 0 C-0.25 2.875 -0.25 2.875 -1 6 C-3.0625 7.375 -3.0625 7.375 -5 8 C-5.36625971 3.48279689 -5.36625971 3.48279689 -3.625 1.1875 C-2 0 -2 0 0 0 Z " fill="#CC8674" transform="translate(111,49)"/>
<path d="M0 0 C2.4375 0.75 2.4375 0.75 5 2 C5.8125 4.125 5.8125 4.125 6 6 C4.35 5.67 2.7 5.34 1 5 C0.67 3.35 0.34 1.7 0 0 Z " fill="#CD8877" transform="translate(77,58)"/>
<path d="M0 0 C1.9375 0.6875 1.9375 0.6875 4 2 C4.75 4.625 4.75 4.625 5 7 C4.01 7 3.02 7 2 7 C0 5 0 5 -0.125 2.375 C-0.08375 1.59125 -0.0425 0.8075 0 0 Z " fill="#CC8574" transform="translate(69,49)"/>
<path d="M0 0 C0.33 0.99 0.66 1.98 1 3 C2.98 2.01 4.96 1.02 7 0 C6.67 2.31 6.34 4.62 6 7 C4.68 6.67 3.36 6.34 2 6 C2.33 5.34 2.66 4.68 3 4 C2.01 4 1.02 4 0 4 C0 2.68 0 1.36 0 0 Z " fill="#EBDBD8" transform="translate(102,41)"/>
<path d="M0 0 C0.99 0 1.98 0 3 0 C3 1.65 3 3.3 3 5 C1.35 5.33 -0.3 5.66 -2 6 C-1.125 1.125 -1.125 1.125 0 0 Z " fill="#CA816F" transform="translate(59,82)"/>
<path d="M0 0 C-0.33 1.65 -0.66 3.3 -1 5 C-2.65 5.33 -4.3 5.66 -6 6 C-6 4.68 -6 3.36 -6 2 C-2.25 0 -2.25 0 0 0 Z " fill="#CB8372" transform="translate(103,58)"/>
<path d="M0 0 C1.65 0 3.3 0 5 0 C4.67 1.32 4.34 2.64 4 4 C2.35 4.33 0.7 4.66 -1 5 C-0.67 3.35 -0.34 1.7 0 0 Z " fill="#E1BFB6" transform="translate(94,45)"/>
<path d="M0 0 C2.475 0.99 2.475 0.99 5 2 C5 3.65 5 5.3 5 7 C2.5 5.75 2.5 5.75 0 4 C0 2.68 0 1.36 0 0 Z " fill="#CF8C7C" transform="translate(72,38)"/>
<path d="M0 0 C0.66 0 1.32 0 2 0 C4 3 4 3 3.625 5.6875 C3.41875 6.450625 3.2125 7.21375 3 8 C2.34 8 1.68 8 1 8 C-0.35439668 5.29120665 -0.06501451 2.99066732 0 0 Z " fill="#CC8675" transform="translate(83,30)"/>
<path d="M0 0 C0.66 0 1.32 0 2 0 C2.1875 2.875 2.1875 2.875 2 6 C1.01 6.66 0.02 7.32 -1 8 C-1.625 5.6875 -1.625 5.6875 -2 3 C-1.34 2.01 -0.68 1.02 0 0 Z " fill="#CA8270" transform="translate(95,30)"/>
<path d="M0 0 C0.66 0 1.32 0 2 0 C2.33 1.98 2.66 3.96 3 6 C1.68 6 0.36 6 -1 6 C-1.042721 4.33388095 -1.04063832 2.66617115 -1 1 C-0.67 0.67 -0.34 0.34 0 0 Z " fill="#CD8978" transform="translate(89,26)"/>
<path d="M0 0 C2.97 0.33 5.94 0.66 9 1 C8.67 1.66 8.34 2.32 8 3 C5.36 3 2.72 3 0 3 C0 2.01 0 1.02 0 0 Z " fill="#7E5C43" transform="translate(116,76)"/>
<path d="M0 0 C1.98 0 3.96 0 6 0 C6 0.99 6 1.98 6 3 C4.35 3.33 2.7 3.66 1 4 C0.67 2.68 0.34 1.36 0 0 Z " fill="#CE8978" transform="translate(106,64)"/>
<path d="M0 0 C1.98 0 3.96 0 6 0 C5.67 1.32 5.34 2.64 5 4 C3.35 3.67 1.7 3.34 0 3 C0 2.01 0 1.02 0 0 Z " fill="#CD8877" transform="translate(68,64)"/>
<path d="M0 0 C0.66 0 1.32 0 2 0 C1.67 1.65 1.34 3.3 1 5 C-0.32 5.33 -1.64 5.66 -3 6 C-2.42655063 3.13275314 -2.1385485 2.1385485 0 0 Z " fill="#D29485" transform="translate(113,33)"/>
<path d="M0 0 C1.9375 0.75 1.9375 0.75 4 2 C4.75 4.125 4.75 4.125 5 6 C3.68 5.67 2.36 5.34 1 5 C0.67 3.35 0.34 1.7 0 0 Z " fill="#D19181" transform="translate(65,33)"/>
<path d="M0 0 C2.31 0.66 4.62 1.32 7 2 C3.375 5 3.375 5 0 5 C0 3.35 0 1.7 0 0 Z " fill="#EFEBE8" transform="translate(99,123)"/>
<path d="M0 0 C0.33 0.66 0.66 1.32 1 2 C-1.97 2 -4.94 2 -8 2 C-8.33 1.34 -8.66 0.68 -9 0 C-3.375 -1.125 -3.375 -1.125 0 0 Z " fill="#82634C" transform="translate(63,77)"/>
<path d="M0 0 C1.65 0 3.3 0 5 0 C4.34 1.32 3.68 2.64 3 4 C1.68 4 0.36 4 -1 4 C-0.67 2.68 -0.34 1.36 0 0 Z " fill="#CD8776" transform="translate(125,53)"/>
<path d="M0 0 C1.98 0 3.96 0 6 0 C6 0.99 6 1.98 6 3 C4.02 3 2.04 3 0 3 C0 2.01 0 1.02 0 0 Z " fill="#6C4529" transform="translate(69,119)"/>
<path d="M0 0 C2.97 0.495 2.97 0.495 6 1 C6 1.99 6 2.98 6 4 C4.35 3.67 2.7 3.34 1 3 C0.67 2.01 0.34 1.02 0 0 Z " fill="#CD8978" transform="translate(50,53)"/>
<path d="M0 0 C2.475 0.495 2.475 0.495 5 1 C4.67 2.32 4.34 3.64 4 5 C2.68 4.67 1.36 4.34 0 4 C0 2.68 0 1.36 0 0 Z " fill="#E0D1D1" transform="translate(71,43)"/>
<path d="M0 0 C2 1 2 1 3 3 C1.03533587 4.06775224 -0.96855359 5.06553465 -3 6 C-3.66 5.67 -4.32 5.34 -5 5 C-3.35 3.35 -1.7 1.7 0 0 Z " fill="#836149" transform="translate(61,121)"/>
<path d="M0 0 C2.97 0.33 5.94 0.66 9 1 C6 3 6 3 2.8125 2.625 C1.884375 2.41875 0.95625 2.2125 0 2 C0 1.34 0 0.68 0 0 Z " fill="#E2D9D3" transform="translate(43,130)"/>
<path d="M0 0 C2.64 0.33 5.28 0.66 8 1 C8 1.99 8 2.98 8 4 C7.01 4 6.02 4 5 4 C5 3.34 5 2.68 5 2 C3.35 1.67 1.7 1.34 0 1 C0 0.67 0 0.34 0 0 Z " fill="#8B6B53" transform="translate(110,113)"/>
<path d="M0 0 C2.375 -0.1875 2.375 -0.1875 5 0 C5.66 0.99 6.32 1.98 7 3 C5.02 3 3.04 3 1 3 C0.67 2.01 0.34 1.02 0 0 Z " fill="#CD8978" transform="translate(54,59)"/>
<path d="M0 0 C0.99 0 1.98 0 3 0 C3 1.32 3 2.64 3 4 C1.68 4.33 0.36 4.66 -1 5 C-0.67 3.35 -0.34 1.7 0 0 Z " fill="#C97F6D" transform="translate(104,39)"/>
</svg>
